<svg width="64" height="45" viewBox="0 0 64 45" fill="none" xmlns="http://www.w3.org/2000/svg">
<path d="M47.5286 13.0078C47.5286 13.0078 42.3331 29.3253 41.9098 30.6723C41.7559 29.2868 37.9459 0 37.9459 0C29.0944 0 24.3608 6.31149 21.8593 12.9693C21.8593 12.9693 15.5478 29.3253 15.009 30.7108C14.9705 29.4408 14.0469 13.1618 14.0469 13.1618C13.5081 5.00301 6.04209 0.0384841 0 0.0384841L7.27361 44.4113C16.5484 44.3728 21.5514 38.0998 24.1684 31.442C24.1684 31.442 29.7486 17.0102 29.9411 16.356C30.018 16.9717 33.9435 44.4113 33.9435 44.4113C43.2568 44.4113 48.2598 38.5232 50.9537 32.0962L64 0.0384841C54.8406 0.0384841 49.9916 6.31149 47.5286 13.0078Z" fill="#3C44FF"/>
</svg>
