<svg width="129" height="128" viewBox="0 0 129 128" fill="none" xmlns="http://www.w3.org/2000/svg">
<path fill-rule="evenodd" clip-rule="evenodd" d="M63.7705 7.93159L63.9529 0.999981H66.4508C66.6968 0.976449 66.9449 1.00472 67.1793 1.08297C67.4137 1.16122 67.629 1.28771 67.8115 1.45429C67.994 1.62087 68.1395 1.82384 68.2387 2.0501C68.3379 2.27637 68.3885 2.52092 68.3874 2.76797C68.3824 3.13355 68.2489 3.4857 68.0102 3.76276C67.7716 4.03982 67.4432 4.22411 67.0823 4.28337C67.5253 4.3123 67.9394 4.51356 68.2358 4.84403C68.5322 5.17449 68.6874 5.60788 68.6681 6.05135C68.6681 7.23001 67.7419 7.91756 66.2684 7.87547L63.7705 7.93159ZM66.1982 7.41242C67.3349 7.41242 67.9664 6.96341 67.9945 6.10748C68.0226 5.25155 67.377 4.70432 66.1842 4.70432H64.5143L64.4441 7.41242H66.1982ZM64.5283 4.10096H66.0299C67.0823 4.10096 67.7138 3.66598 67.7279 2.85215C67.7419 2.03832 67.2086 1.6314 66.3245 1.60334H64.6265L64.5283 4.10096ZM58.4658 8.24032L62.6757 7.94566L62.5494 7.35634L59.0411 7.6089L58.8587 4.95693L62.1846 4.7184V4.1431L58.8587 4.38163L58.6763 1.89804L62.1846 1.64548V1.05615L57.9746 1.35081L58.4658 8.24032ZM51.2523 9.47505L51.8557 9.36279L52.4592 3.3292L55.2658 8.70331L55.8552 8.59105L56.3464 1.44897L55.6728 1.57525L55.3219 7.67901L52.5153 2.17861L51.8698 2.3049L51.3646 8.4367L48.7264 2.9223L48.0528 3.04857L51.2523 9.47505ZM70.3938 1.29468L69.5518 8.15613L70.1973 8.24031L70.5902 5.12531L73.7336 5.50416L73.8038 4.92886L70.6464 4.53597L70.9691 1.9682L74.3932 2.38914L74.4634 1.78578L70.3938 1.29468ZM78.6174 9.71364L74.5899 8.84367L75.9932 2.08044L76.6387 2.22077L75.3055 8.39466L78.7016 9.12431L78.6174 9.71364ZM85.4457 9.6229C85.7028 9.25002 85.877 8.82641 85.9567 8.38057C86.1526 7.97288 86.2587 7.52784 86.2676 7.0756C86.2766 6.62336 86.1882 6.17449 86.0086 5.75936C85.829 5.34423 85.5622 4.97254 85.2264 4.66947C84.8906 4.36639 84.4936 4.13901 84.0622 4.00271C82.2239 3.41338 80.6522 4.3535 79.9786 6.44421C79.7816 6.85206 79.6744 7.29736 79.664 7.75014C79.6536 8.20292 79.7403 8.65267 79.9183 9.06913C80.0963 9.4856 80.3614 9.8591 80.6958 10.1645C81.0303 10.4699 81.4263 10.7002 81.8572 10.8398C82.2881 10.9793 82.7439 11.025 83.194 10.9737C83.644 10.9224 84.0778 10.7753 84.4662 10.5423C84.8546 10.3093 85.1886 9.99577 85.4457 9.6229ZM80.3271 7.68241C80.3461 7.31896 80.4426 6.96378 80.6101 6.64065C81.1153 4.91476 82.4343 4.10093 83.8657 4.59203C84.2082 4.7152 84.5205 4.91014 84.7815 5.16379C85.0425 5.41744 85.2463 5.72395 85.3791 6.06277C85.512 6.40158 85.5709 6.76489 85.5519 7.12834C85.533 7.49178 85.4365 7.84697 85.269 8.1701C84.7077 9.89598 83.4167 10.6818 82.0134 10.2187C81.6709 10.0955 81.3587 9.9006 81.0976 9.64695C80.8366 9.3933 80.6328 9.08679 80.5 8.74798C80.3671 8.40916 80.3081 8.04585 80.3271 7.68241ZM87.4302 12.7725L86.8829 12.5059L88.1599 5.49011L88.7773 5.78477L87.5845 11.7763L91.6542 7.17391L92.2435 7.45454L91.191 13.5022L95.1203 8.82964L95.7378 9.1243L91.0226 14.5405L90.4754 14.2739L91.4577 8.31047L87.4302 12.7725ZM95.1768 16.9539L98.6149 19.3393L98.9938 18.8622L96.103 16.8417L97.6186 14.6668L100.425 16.5751L100.762 16.098L97.9554 14.1757L99.3587 12.1411L102.235 14.2178L102.572 13.7267L99.1342 11.3413L95.1768 16.9539ZM103.232 18.6658L103.653 14.4563L104.256 14.9755L103.877 18.5255L107.343 17.6134L107.905 18.1045L103.807 19.1569L103.386 23.3663L102.783 22.8472L103.176 19.3253L99.7235 20.2233L99.1621 19.7462L103.232 18.6658ZM111.108 21.6536C110.985 21.3818 110.807 21.1385 110.585 20.9389L108.957 19.2411L103.947 23.9978L104.396 24.4749L106.291 22.6788L107.456 23.8996C107.643 24.1322 107.876 24.3235 108.14 24.4615C108.405 24.5995 108.695 24.6812 108.993 24.7014C109.291 24.7217 109.59 24.68 109.871 24.5791C110.151 24.4782 110.408 24.3203 110.625 24.1151C110.842 23.91 111.014 23.6623 111.13 23.3874C111.246 23.1126 111.305 22.8166 111.301 22.5182C111.297 22.2198 111.231 21.9255 111.108 21.6536ZM107.778 23.3944L106.712 22.2719L108.985 20.1111L110.052 21.2336C110.21 21.3794 110.336 21.5561 110.423 21.7528C110.51 21.9494 110.556 22.1619 110.558 22.3769C110.559 22.592 110.517 22.8051 110.433 23.003C110.349 23.201 110.225 23.3796 110.069 23.5278C109.913 23.6759 109.728 23.7905 109.526 23.8645C109.325 23.9384 109.11 23.9701 108.895 23.9576C108.68 23.9451 108.47 23.8887 108.278 23.7918C108.086 23.695 107.916 23.5597 107.778 23.3944ZM110.332 31.3083L107.778 28.0249L113.223 23.8154L115.791 27.0988L115.328 27.4636L113.153 24.6573L111.202 26.1868L113.265 28.8247L112.802 29.1755L110.711 26.5516L108.62 28.1793L110.795 30.9856L110.332 31.3083ZM110.978 32.2063L111.328 32.7535L113.77 31.4065L114.71 32.8096V32.9079L113.181 35.7142L113.602 36.3737L115.173 33.3007C115.494 33.6126 115.915 33.8018 116.361 33.8351C116.808 33.8684 117.251 33.7439 117.615 33.4832C117.859 33.336 118.069 33.1383 118.23 32.9034C118.391 32.6684 118.5 32.4016 118.549 32.121C118.598 31.8404 118.587 31.5525 118.515 31.2768C118.444 31.001 118.314 30.7438 118.134 30.5225L116.815 28.4598L110.978 32.2063ZM115.145 32.3185L114.205 30.9154L116.675 29.3579L117.601 30.761C117.731 30.9172 117.825 31.0997 117.878 31.296C117.93 31.4922 117.939 31.6975 117.905 31.8976C117.87 32.0977 117.792 32.288 117.677 32.4551C117.562 32.6223 117.411 32.7624 117.236 32.8658C117.069 32.9862 116.877 33.0682 116.674 33.1058C116.471 33.1435 116.262 33.1359 116.062 33.0836C115.863 33.0314 115.677 32.9357 115.518 32.8035C115.36 32.6712 115.233 32.5056 115.145 32.3185ZM114.795 38.6327L120.408 35.7422L119.37 33.7076L119.903 33.441L122.275 38.0995L121.741 38.3801L120.703 36.3315L115.09 39.208L114.795 38.6327ZM120.773 42.5334L120.212 42.7299L121.278 45.7046L121.84 45.4941L120.773 42.5334ZM119.65 51.8084L119.538 51.2191L125.965 48.0199L126.106 48.6794L120.591 51.3173L126.723 51.8224L126.849 52.4679L121.362 55.2742L127.467 55.639L127.593 56.3126L120.436 55.7653L120.31 55.162L125.685 52.3557L119.65 51.8084ZM120.773 58.4734L121.068 62.6829L121.672 62.5706L121.419 59.0487L124.057 58.8663L124.296 62.1918H124.885L124.647 58.8663L127.116 58.6839L127.369 62.1918H127.958L127.664 57.9823L120.773 58.4734ZM121.095 63.7634L128.014 63.9599L127.943 66.4434C127.969 66.6905 127.942 66.9402 127.865 67.1762C127.788 67.4122 127.662 67.6293 127.495 67.8133C127.328 67.9973 127.124 68.1441 126.897 68.2441C126.67 68.3442 126.424 68.3952 126.175 68.3939C125.81 68.3888 125.458 68.2553 125.18 68.0167C124.903 67.7781 124.719 67.4497 124.66 67.0889C124.631 67.5281 124.431 67.9386 124.103 68.2323C123.775 68.5261 123.345 68.6797 122.906 68.6604C121.727 68.6604 121.025 67.7344 121.067 66.2751L121.095 63.7634ZM121.601 66.1909C121.601 67.3274 122.05 67.9729 122.906 67.9869C123.762 68.001 124.309 67.3696 124.309 66.1769V64.5071L121.615 64.4369L121.601 66.1909ZM124.912 64.5211V66.0225C124.912 67.0749 125.361 67.7063 126.175 67.7344C126.989 67.7624 127.382 67.2152 127.41 66.3312V64.6334L124.912 64.5211ZM127.72 70.3442L120.857 69.5164L120.787 70.232L123.903 70.6108L123.51 73.7539H124.099L124.478 70.6108L127.06 70.9195L126.639 74.3432L127.228 74.4134L127.72 70.3442ZM119.327 78.5666L120.197 74.5396L126.961 75.9427L126.821 76.5882L120.646 75.2552L119.917 78.6508L119.327 78.5666ZM119.311 84.7119C119.633 85.2298 120.096 85.6441 120.647 85.9052C121.055 86.1011 121.5 86.2072 121.952 86.2161C122.404 86.2251 122.853 86.1368 123.268 85.9571C123.684 85.7775 124.055 85.5108 124.358 85.175C124.662 84.8392 124.889 84.4423 125.025 84.0109C125.212 83.4308 125.227 82.8092 125.07 82.2205C124.912 81.6318 124.589 81.1009 124.137 80.6914C123.686 80.2819 123.126 80.0112 122.525 79.9116C121.923 79.8119 121.306 79.8877 120.747 80.1297C120.468 80.2502 120.21 80.4095 119.978 80.6017C119.431 80.8635 119.022 81.3308 118.809 81.9764C118.599 82.6101 118.645 83.2237 118.917 83.7579C118.995 84.0936 119.128 84.4161 119.311 84.7119ZM120.857 85.2457C119.911 84.938 119.247 84.4065 118.917 83.7579C118.858 83.506 118.831 83.2465 118.835 82.9853C118.846 82.376 119.031 81.7826 119.371 81.2761C119.541 81.022 119.746 80.7952 119.978 80.6017C120.621 80.2944 121.455 80.2702 122.387 80.5732C124.113 81.1204 124.913 82.3833 124.436 83.8426C124.313 84.185 124.118 84.4972 123.864 84.7582C123.61 85.0192 123.304 85.223 122.965 85.3558C122.626 85.4887 122.263 85.5476 121.899 85.5286C121.536 85.5096 121.181 85.4132 120.857 85.2457ZM116.198 87.3926L116.465 86.8313L123.481 88.1222L123.187 88.7255L117.194 87.5469L121.811 91.6161L121.531 92.2054L115.468 91.153L120.141 95.0819L119.847 95.6992L114.5 91.0969L114.767 90.5497L120.731 91.5178L116.198 87.3926ZM112.072 95.1379L109.687 98.5757L110.178 98.9265L112.199 96.036L114.374 97.5514L112.465 100.358L112.942 100.694L114.851 97.8881L116.9 99.2913L114.893 102.182L115.384 102.533L117.77 99.0948L112.072 95.1379ZM110.375 103.192L114.585 103.613L114.065 104.216L110.515 103.838L111.427 107.303L110.936 107.865L109.897 103.767L105.688 103.346L106.207 102.743L109.743 103.122L108.845 99.6701L109.336 99.1089L110.375 103.192ZM107.415 111.107C107.684 110.993 107.927 110.825 108.129 110.615L109.841 108.973L105.042 103.978L104.579 104.427L106.375 106.307L105.154 107.486C104.934 107.677 104.754 107.911 104.627 108.174C104.499 108.437 104.427 108.722 104.413 109.014C104.399 109.306 104.444 109.597 104.546 109.871C104.648 110.144 104.804 110.394 105.005 110.606C105.206 110.818 105.448 110.986 105.716 111.102C105.984 111.217 106.273 111.277 106.565 111.278C106.857 111.279 107.146 111.22 107.415 111.107ZM105.603 107.809L106.726 106.742L108.901 109.001L107.778 110.082C107.477 110.37 107.073 110.527 106.656 110.518C106.239 110.508 105.842 110.334 105.554 110.033C105.266 109.731 105.109 109.327 105.118 108.91C105.127 108.493 105.302 108.097 105.603 107.809ZM97.7442 110.32L101.028 107.724L105.322 113.155L102.038 115.75L101.659 115.287L104.466 113.098L102.922 111.134L100.284 113.225L99.9193 112.762L102.558 110.685L100.902 108.594L98.095 110.783L97.7442 110.32ZM96.8467 110.938L96.2994 111.288L97.8291 113.73L96.3555 114.67H96.2714L93.3946 113.14L92.7491 113.547L95.7521 115.133C95.4419 115.457 95.2529 115.878 95.2172 116.326C95.1814 116.773 95.3009 117.219 95.5557 117.588C95.7054 117.832 95.9054 118.04 96.1421 118.2C96.3789 118.36 96.6471 118.467 96.9287 118.515C97.2104 118.563 97.499 118.55 97.7752 118.477C98.0515 118.405 98.3091 118.274 98.5307 118.094L100.58 116.775L96.8467 110.938ZM96.7345 115.119L98.1378 114.179L99.7375 116.634L98.3342 117.56C98.1782 117.701 97.9925 117.805 97.7909 117.864C97.5893 117.924 97.377 117.937 97.1695 117.903C96.9621 117.87 96.7648 117.79 96.5924 117.67C96.4199 117.55 96.2767 117.392 96.1731 117.21C96.0532 117.041 95.9719 116.848 95.9352 116.645C95.8985 116.441 95.9073 116.232 95.961 116.032C96.0146 115.832 96.1118 115.647 96.2455 115.489C96.3792 115.331 96.5462 115.205 96.7345 115.119ZM90.4195 114.768L93.2963 120.381L95.3452 119.343L95.6118 119.862L90.9388 122.247L90.6721 121.714L92.7209 120.675L89.8301 115.063L90.4195 114.768ZM86.5182 120.746L86.3217 120.184L83.3467 121.251L83.5572 121.812L86.5182 120.746ZM77.1576 119.651L77.761 119.525L80.9466 125.965L80.287 126.092L77.6488 120.563L77.1436 126.695L76.4981 126.821L73.6914 121.335L73.3406 127.439L72.667 127.579L73.2143 120.409L73.8037 120.297L76.6103 125.657L77.1576 119.651ZM70.5908 120.76L66.3809 121.054V121.658L69.8892 121.405L70.226 124.043L66.8861 124.282V124.871L70.226 124.632L70.3944 127.102L66.8861 127.355V127.944L71.096 127.649L70.5908 120.76ZM65.2723 121.082L65.0758 128L62.5919 127.93C62.3456 127.958 62.0963 127.933 61.8602 127.857C61.6242 127.782 61.4068 127.657 61.2225 127.491C61.0382 127.325 60.8911 127.123 60.791 126.896C60.6908 126.669 60.6398 126.424 60.6414 126.176C60.6431 125.808 60.7751 125.452 61.014 125.172C61.2529 124.893 61.5832 124.706 61.9464 124.646C61.5059 124.614 61.0954 124.411 60.802 124.081C60.5086 123.751 60.3553 123.32 60.3747 122.879C60.3747 121.7 61.3009 120.998 62.7604 121.04L65.2723 121.082ZM62.8305 121.602C61.7079 121.602 61.0624 122.037 61.0343 122.907C61.0062 123.777 61.6517 124.31 62.8586 124.31H64.5285L64.5987 121.616L62.8305 121.602ZM64.5145 124.913H62.9989C61.9605 124.913 61.329 125.348 61.3009 126.162C61.2729 126.976 61.8201 127.369 62.7042 127.397H64.4022L64.5145 124.913ZM58.6624 127.719L59.4904 120.858L58.7747 120.774L58.3958 123.889L55.2524 123.51L55.1822 124.085L58.3256 124.464L58.0169 127.046L54.5928 126.625V127.214L58.6624 127.719ZM50.4389 119.328L54.4664 120.184L53.0631 126.948L52.4175 126.821L53.8208 120.633L50.4248 119.904L50.4389 119.328ZM43.6109 119.408C43.3533 119.78 43.179 120.202 43.0996 120.647C42.9027 121.055 42.7955 121.501 42.785 121.953C42.7747 122.406 42.8614 122.856 43.0393 123.272C43.2173 123.689 43.4825 124.062 43.8169 124.368C44.1514 124.673 44.5474 124.903 44.9783 125.043C45.4092 125.183 45.865 125.228 46.315 125.177C46.7651 125.126 47.1989 124.978 47.5873 124.745C47.9757 124.512 48.3097 124.199 48.5668 123.826C48.8239 123.453 48.9981 123.03 49.0778 122.584C49.7514 120.493 49.0216 118.809 47.1973 118.22C46.7688 118.076 46.3143 118.026 45.8647 118.073C45.4151 118.12 44.981 118.264 44.592 118.495C44.2031 118.725 43.8684 119.037 43.6109 119.408ZM48.7292 121.332C48.7102 121.695 48.6137 122.05 48.4463 122.373C47.8849 124.099 46.622 124.899 45.1906 124.436C44.8495 124.311 44.5388 124.115 44.2791 123.861C44.0194 123.607 43.8165 123.301 43.6839 122.963C43.5512 122.624 43.4919 122.262 43.5097 121.899C43.5275 121.536 43.6221 121.181 43.7873 120.858C44.3346 119.132 45.6396 118.332 47.043 118.795C47.3855 118.918 47.6977 119.113 47.9587 119.367C48.2197 119.621 48.4235 119.927 48.5564 120.266C48.6893 120.605 48.7482 120.968 48.7292 121.332ZM41.6264 116.242L42.1737 116.508L40.8967 123.524L40.2792 123.229L41.458 117.238L37.3884 121.84L36.799 121.559L37.8655 115.512L33.9222 120.198L33.3047 119.89L38.0199 114.488L38.5672 114.74L37.5989 120.704L41.6264 116.242ZM33.8658 112.074L30.4277 109.689L30.0628 110.18L32.9677 112.186L31.4381 114.375L28.6315 112.453L28.3087 112.944L31.1153 114.852L29.712 116.901L26.8212 114.88L26.4844 115.372L29.9085 117.757L33.8658 112.074ZM25.8108 110.362L25.3898 114.572L24.7863 114.067L25.1652 110.517L21.7131 111.415L21.1377 110.924L25.2354 109.885L25.6564 105.676L26.2598 106.181L25.8809 109.717L29.3331 108.819L29.8944 109.31L25.8108 110.362ZM17.9035 107.42C18.0193 107.688 18.1885 107.93 18.4006 108.131L20.0285 109.829L25.0243 105.044L24.5752 104.567L22.6947 106.377L21.516 105.142C21.3237 104.922 21.0888 104.743 20.8254 104.616C20.5619 104.49 20.2755 104.418 19.9834 104.405C19.6913 104.392 19.3996 104.438 19.126 104.541C18.8524 104.644 18.6025 104.802 18.3915 105.004C18.1805 105.207 18.0128 105.45 17.8986 105.719C17.7843 105.988 17.7258 106.277 17.7266 106.57C17.7275 106.862 17.7876 107.151 17.9035 107.42ZM21.1932 105.606L22.2738 106.728L19.9583 108.889L18.8777 107.78C18.709 107.637 18.5736 107.458 18.4806 107.257C18.3877 107.056 18.3396 106.837 18.3396 106.616C18.3396 106.394 18.3877 106.175 18.4806 105.974C18.5736 105.773 18.709 105.595 18.8777 105.451C19.0309 105.292 19.2172 105.168 19.4234 105.088C19.6296 105.008 19.8508 104.974 20.0714 104.989C20.292 105.004 20.5068 105.067 20.7006 105.173C20.8944 105.28 21.0625 105.427 21.1932 105.606ZM18.6958 97.7339L21.2779 101.017L15.8471 105.311L13.251 102.028L13.7141 101.663L15.9033 104.469L17.8679 102.926L15.791 100.302L16.24 99.9369L18.317 102.561L20.4079 100.919L18.2187 98.1127L18.6958 97.7339ZM18.0641 96.8357L17.7132 96.2885L15.2574 97.7057L14.3312 96.3026C14.3266 96.27 14.3266 96.2369 14.3312 96.2043L15.8609 93.398L15.4399 92.7385L13.8681 95.7553C13.548 95.4378 13.1257 95.2438 12.6762 95.2078C12.2267 95.1719 11.7789 95.2962 11.4123 95.5589C11.1694 95.7072 10.9611 95.9058 10.8014 96.1413C10.6417 96.3768 10.5343 96.6438 10.4864 96.9243C10.4386 97.2049 10.4513 97.4924 10.5239 97.7675C10.5965 98.0427 10.7272 98.2991 10.9072 98.5195L12.2263 100.582L18.0641 96.8357ZM13.8962 96.7095L14.8364 98.1126L12.3666 99.7122L11.4404 98.3091C11.3354 98.1478 11.2631 97.9675 11.2278 97.7784C11.1925 97.5892 11.1947 97.3949 11.2344 97.2067C11.2742 97.0184 11.3507 96.8398 11.4594 96.681C11.5682 96.5223 11.7072 96.3866 11.8684 96.2815C12.0297 96.1765 12.21 96.1042 12.3992 96.0689C12.5884 96.0336 12.7827 96.0358 12.971 96.0756C13.1593 96.1153 13.3379 96.1917 13.4967 96.3005C13.6554 96.4093 13.7912 96.5482 13.8962 96.7095ZM14.233 90.4093L8.61973 93.2998L9.65817 95.3344L9.12495 95.601L6.73929 90.9425L7.27256 90.6618L8.311 92.7104L13.9243 89.834L14.233 90.4093ZM8.255 86.5086L8.81636 86.3121L7.74983 83.3514L7.18851 83.5479L8.255 86.5086ZM9.3637 77.1915L9.49 77.7949L3.04878 80.9941L2.92249 80.3206L8.43751 77.6967L2.30503 77.1775L2.17874 76.5461L7.6657 73.7398L1.56127 73.3749L1.42093 72.7014L8.5919 73.2486L8.70414 73.838L3.34347 76.6443L9.3637 77.1915ZM8.24164 70.5828L7.94691 66.3733L7.35755 66.4855L7.61013 69.9934L4.95789 70.1899L4.71931 66.8504H4.14394L4.38253 70.1899L1.89863 70.3723L1.64604 66.8644H1.05668L1.35136 71.0739L8.24164 70.5828ZM7.91804 65.2787L0.999708 65.0963V62.6127C0.974202 62.3668 1.00053 62.1183 1.07701 61.8833C1.15348 61.6482 1.27839 61.4318 1.44368 61.2481C1.60898 61.0643 1.81098 60.9172 2.03665 60.8163C2.26232 60.7154 2.50665 60.6629 2.75385 60.6623C3.1219 60.664 3.47744 60.7961 3.75743 61.0349C4.03742 61.2738 4.22378 61.6041 4.28346 61.9672C4.31239 61.528 4.5122 61.1175 4.84007 60.8238C5.16794 60.5301 5.5978 60.3764 6.0376 60.3957C7.21639 60.3957 7.91804 61.3218 7.87594 62.7811L7.91804 65.2787ZM4.10102 64.535V63.0196C4.10102 61.9812 3.66602 61.3498 2.85209 61.3218C2.03817 61.2937 1.64524 61.8409 1.61717 62.7249V64.4227L4.10102 64.535ZM7.41287 62.8512C7.41287 61.7287 6.96377 61.0832 6.10775 61.0551C5.25173 61.0271 4.70444 61.6726 4.70444 62.8652V64.549H7.39882L7.41287 62.8512ZM1.28031 58.712L8.14254 59.5398L8.22674 58.7541L5.11137 58.3752L5.49025 55.2321H4.91493L4.53601 58.3752L1.95392 58.0665L2.37494 54.6428H1.78552L1.28031 58.712ZM9.67216 50.4894L8.81616 54.5164L2.03812 53.1133L2.17846 52.4818L8.36709 53.8008L9.09679 50.4192L9.67216 50.4894ZM9.59573 43.6618C9.22282 43.4048 8.79916 43.2306 8.35327 43.1509C7.94644 42.9547 7.50228 42.8481 7.05072 42.8383C6.59917 42.8284 6.15076 42.9155 5.73576 43.0937C5.32076 43.272 4.94879 43.5371 4.64503 43.8714C4.34127 44.2056 4.11277 44.6011 3.97494 45.0311C3.38554 46.8693 4.32575 48.4408 6.41669 49.1284C6.82459 49.3253 7.26996 49.4326 7.72279 49.443C8.17562 49.4534 8.6254 49.3666 9.04191 49.1887C9.45842 49.0107 9.83198 48.7456 10.1374 48.4112C10.4429 48.0767 10.6732 47.6808 10.8128 47.2499C10.9523 46.8191 10.998 46.3633 10.9467 45.9133C10.8953 45.4633 10.7482 45.0296 10.5152 44.6412C10.2822 44.2528 9.96865 43.9189 9.59573 43.6618ZM7.65504 48.7658C7.29156 48.7468 6.93634 48.6504 6.61317 48.4829C4.8871 47.9217 4.08722 46.6588 4.56435 45.2136C4.68752 44.8711 4.88248 44.5589 5.13616 44.2979C5.38984 44.0369 5.69638 43.8332 6.03524 43.7003C6.3741 43.5674 6.73743 43.5085 7.10092 43.5275C7.4644 43.5465 7.81962 43.643 8.14278 43.8104C9.86886 44.3717 10.6547 45.6766 10.1916 47.0798C10.0684 47.4222 9.87348 47.7344 9.6198 47.9954C9.36612 48.2564 9.05957 48.4601 8.72072 48.593C8.38186 48.7259 8.01852 48.7848 7.65504 48.7658ZM12.7461 41.6636L12.4795 42.2109L5.46293 40.934L5.75761 40.3166L11.7498 41.4952L7.14692 37.4261L7.42756 36.8368L13.4899 37.8891L8.81687 33.9603L9.11155 33.3289L14.5283 38.0575L14.2617 38.6047L8.29761 37.6225L12.7461 41.6636ZM16.9842 33.9041L19.3699 30.4663L18.8787 30.1155L16.8579 33.0201L14.6828 31.4906L16.5913 28.6843L16.1142 28.3475L14.2057 31.1539L12.1568 29.7507L14.1776 26.8602L13.6865 26.5234L11.3008 29.9471L16.9842 33.9041ZM18.6113 25.85L14.4014 25.4291L14.9206 24.8257L18.471 25.2046L17.5589 21.7388L18.05 21.1775L19.0885 25.2747L23.2984 25.6957L22.7792 26.299L19.2569 25.9202L20.155 29.3719L19.6638 29.9332L18.6113 25.85ZM21.5707 17.9356C21.3019 18.0496 21.059 18.2169 20.8566 18.4273L19.1446 20.055L23.9299 25.0643L24.407 24.6152L22.5967 22.721L23.8316 21.5564C24.0521 21.3649 24.2314 21.1308 24.3588 20.8681C24.4862 20.6055 24.5591 20.3197 24.573 20.0281C24.587 19.7365 24.5417 19.4451 24.4398 19.1715C24.338 18.8979 24.1818 18.6478 23.9807 18.4362C23.7795 18.2246 23.5376 18.056 23.2694 17.9405C23.0013 17.825 22.7125 17.765 22.4205 17.7642C22.1286 17.7633 21.8395 17.8217 21.5707 17.9356ZM23.3686 21.2336L22.2599 22.3L20.0848 20.0269L21.1934 18.9605C21.3352 18.7857 21.5126 18.6431 21.7137 18.5422C21.9149 18.4412 22.1352 18.3842 22.3601 18.375C22.585 18.3658 22.8092 18.4046 23.018 18.4887C23.2267 18.5729 23.4152 18.7005 23.5708 18.8631C23.7264 19.0258 23.8456 19.2196 23.9205 19.4318C23.9953 19.6441 24.0241 19.8698 24.005 20.094C23.9859 20.3183 23.9192 20.5359 23.8095 20.7323C23.6998 20.9288 23.5495 21.0997 23.3686 21.2336ZM31.242 18.7218L27.9582 21.3177L23.6641 15.8734L26.9479 13.2776L27.3127 13.7547L24.5061 15.9436L26.0498 17.894L28.6739 15.8173L29.0388 16.2803L26.4146 18.357L28.0565 20.4477L30.8631 18.2588L31.242 18.7218ZM32.1254 18.0904L32.6728 17.7396L31.1992 15.2981L32.6026 14.372H32.6868L35.5636 15.8874L36.2091 15.4665L33.206 13.909C33.5179 13.588 33.7071 13.1676 33.7404 12.7213C33.7737 12.2751 33.6492 11.8312 33.3884 11.4675C33.2415 11.225 33.0443 11.0169 32.8099 10.8573C32.5756 10.6977 32.3097 10.5903 32.0302 10.5424C31.7508 10.4945 31.4643 10.5072 31.1902 10.5796C30.9161 10.6521 30.6608 10.7826 30.4415 10.9624L28.3926 12.2813L32.1254 18.0904ZM32.2377 13.9932L30.8344 14.9333L29.2346 12.4778L30.6379 11.5517C30.7983 11.4466 30.9777 11.3742 31.166 11.3385C31.3543 11.3028 31.5479 11.3046 31.7355 11.3437C31.9232 11.3828 32.1013 11.4584 32.2597 11.5664C32.4181 11.6743 32.5537 11.8123 32.6587 11.9726C32.7637 12.1329 32.8362 12.3124 32.8719 12.5007C32.9076 12.689 32.9058 12.8825 32.8667 13.0701C32.8276 13.2577 32.7519 13.4358 32.644 13.5942C32.5361 13.7526 32.3981 13.8881 32.2377 13.9932ZM38.5527 14.2598L35.6758 8.6472L33.627 9.69957L33.3604 9.16637L38.0334 6.781L38.3 7.3142L36.2091 8.31044L39.0157 13.9231L38.5527 14.2598ZM42.4541 8.28247L42.6506 8.84372L45.6256 7.77733L45.4151 7.21606L42.4541 8.28247Z" fill="#0B0B0B"/>
</svg>
