<svg width="33" height="23" viewBox="0 0 33 23" fill="none" xmlns="http://www.w3.org/2000/svg">
<path fill-rule="evenodd" clip-rule="evenodd" d="M19.5135 11.0162C19.5135 6.77979 15.9923 3.33347 11.6643 3.33347C7.5336 3.33347 4.04461 6.8518 4.04461 11.0162C4.04461 15.2526 7.46312 18.6989 11.6643 18.6989C16.0654 18.6989 19.5135 15.3246 19.5135 11.0162ZM0.688538 11.0164C0.688538 4.94183 5.61192 3.09284e-05 11.6643 3.09284e-05C17.8428 3.09284e-05 22.8696 4.94183 22.8696 11.0164C22.8696 17.1943 17.9475 22.0328 11.6643 22.0328C5.61192 22.0328 0.688538 17.091 0.688538 11.0164Z" fill="#FDA228"/>
<path fill-rule="evenodd" clip-rule="evenodd" d="M29.2013 11.0162C29.2013 6.77976 25.6801 3.33344 21.3521 3.33344C17.2214 3.33344 13.7324 6.85177 13.7324 11.0162C13.7324 15.2526 17.1509 18.6989 21.3521 18.6989C25.7532 18.6989 29.2013 15.3246 29.2013 11.0162ZM10.3763 11.0164C10.3763 4.9418 15.2997 0 21.3521 0C27.5306 0 32.5574 4.9418 32.5574 11.0164C32.5574 17.1943 27.6353 22.0328 21.3521 22.0328C15.2997 22.0328 10.3763 17.091 10.3763 11.0164Z" fill="#FDA228"/>
</svg>
