<svg width="54" height="128" viewBox="0 0 54 128" fill="none" xmlns="http://www.w3.org/2000/svg">
<path d="M0 127.653H27.0526C46.7937 127.653 53.6178 120.95 53.6178 106.325V90.9697C53.6178 81.0981 49.2309 75.0046 36.192 73.664C46.9156 72.3234 50.3276 67.3267 50.3276 59.6488V47.5835C50.3276 33.8121 44.1128 28.3279 27.0526 28.3279H0V127.653ZM25.5903 43.318C30.2209 43.318 32.1707 44.9024 32.1707 51.9709V59.7707C32.1707 66.9611 30.2209 68.5454 25.5903 68.5454H18.1569V43.318H25.5903ZM27.0526 82.9262C32.9018 82.9262 35.339 84.6324 35.339 92.554V102.426C35.339 110.713 32.9018 112.663 27.0526 112.663H18.1569V82.9262H27.0526Z" fill="#0B0B0B"/>
<path fill-rule="evenodd" clip-rule="evenodd" d="M25.5135 11.0162C25.5135 6.77979 21.9923 3.33347 17.6643 3.33347C13.5336 3.33347 10.0446 6.8518 10.0446 11.0162C10.0446 15.2526 13.4631 18.6989 17.6643 18.6989C22.0654 18.6989 25.5135 15.3246 25.5135 11.0162ZM6.68854 11.0164C6.68854 4.94183 11.6119 3.09284e-05 17.6643 3.09284e-05C23.8428 3.09284e-05 28.8696 4.94183 28.8696 11.0164C28.8696 17.1943 23.9475 22.0328 17.6643 22.0328C11.6119 22.0328 6.68854 17.091 6.68854 11.0164Z" fill="#FDA228"/>
<path fill-rule="evenodd" clip-rule="evenodd" d="M35.2013 11.0162C35.2013 6.77976 31.6801 3.33344 27.3521 3.33344C23.2214 3.33344 19.7324 6.85177 19.7324 11.0162C19.7324 15.2526 23.1509 18.6989 27.3521 18.6989C31.7532 18.6989 35.2013 15.3246 35.2013 11.0162ZM16.3763 11.0164C16.3763 4.9418 21.2997 0 27.3521 0C33.5306 0 38.5574 4.9418 38.5574 11.0164C38.5574 17.1943 33.6353 22.0328 27.3521 22.0328C21.2997 22.0328 16.3763 17.091 16.3763 11.0164Z" fill="#FDA228"/>
</svg>
