<svg width="240" height="129" viewBox="0 0 240 129" fill="none" xmlns="http://www.w3.org/2000/svg">
<path fill-rule="evenodd" clip-rule="evenodd" d="M179.099 56.0044C182.85 56.0044 185.901 52.9079 185.901 49.1019C185.901 45.4694 182.786 42.4012 179.099 42.4012M179.1 39.4497C184.477 39.4497 188.853 43.7793 188.853 49.1017C188.853 54.5351 184.477 58.9555 179.1 58.9555C173.63 58.9555 169.347 54.6271 169.347 49.1017C169.347 43.7793 173.722 39.4497 179.1 39.4497" fill="#1DAAFC"/>
<path fill-rule="evenodd" clip-rule="evenodd" d="M228.983 105.836C235.163 105.836 240 110.718 240 116.787C240 122.594 235.163 127.475 228.983 127.475C222.938 127.475 217.967 122.594 217.967 116.787C217.967 110.718 222.938 105.836 228.983 105.836" fill="#FC3E6B"/>
<path d="M0 127.653H27.0526C46.7937 127.653 53.6178 120.95 53.6178 106.325V90.9695C53.6178 81.0979 49.2309 75.0043 36.192 73.6637C46.9156 72.3232 50.3276 67.3264 50.3276 59.6486V47.5833C50.3276 33.8118 44.1128 28.3276 27.0526 28.3276H0V127.653ZM25.5903 43.3178C30.2209 43.3178 32.1707 44.9021 32.1707 51.9707V59.7704C32.1707 66.9608 30.2209 68.5452 25.5903 68.5452H18.1569V43.3178H25.5903ZM27.0526 82.926C32.9018 82.926 35.339 84.6322 35.339 92.5538V102.425C35.339 110.713 32.9018 112.663 27.0526 112.663H18.1569V82.926H27.0526Z" fill="white"/>
<path d="M77.7094 63.4266C77.7094 57.4549 79.4154 55.6268 84.899 55.6268C90.8701 55.6268 92.698 57.5767 92.698 65.3765V73.6637C79.6591 77.3199 58.0901 74.2731 58.0901 96.8193V108.153C58.0901 122.412 63.6956 128.262 75.6378 128.262C87.5799 128.262 92.698 122.9 92.698 109.738V127.653H110.977V63.6703C110.977 45.6334 103.787 39.2961 85.3865 39.2961C67.1077 39.2961 59.4306 45.6334 59.4306 61.2329V70.0076H77.7094V63.4266ZM76.1252 106.082V95.3568C76.1252 88.0446 82.34 87.5571 92.698 85.4853V106.447C92.698 112.784 89.8952 114.734 82.9493 114.734C78.3187 114.734 76.1252 112.419 76.1252 106.082Z" fill="white"/>
<path d="M115.846 127.653H164.224V111.322H138.024L164.224 50.9957V39.9054H117.552V56.2362H143.021L115.846 116.562V127.653Z" fill="white"/>
<path d="M193.515 127.653H211.672V28.3276H193.515V127.653Z" fill="white"/>
<path d="M169.967 127.475H188.065V65.3115H169.967V127.475Z" fill="white"/>
<path fill-rule="evenodd" clip-rule="evenodd" d="M25.5134 11.0162C25.5134 6.77979 21.9922 3.33347 17.6642 3.33347C13.5335 3.33347 10.0446 6.8518 10.0446 11.0162C10.0446 15.2526 13.4631 18.6989 17.6642 18.6989C22.0654 18.6989 25.5134 15.3246 25.5134 11.0162ZM6.68848 11.0164C6.68848 4.94183 11.6119 3.09284e-05 17.6642 3.09284e-05C23.8428 3.09284e-05 28.8695 4.94183 28.8695 11.0164C28.8695 17.1943 23.9475 22.0328 17.6642 22.0328C11.6119 22.0328 6.68848 17.091 6.68848 11.0164Z" fill="#FDA228"/>
<path fill-rule="evenodd" clip-rule="evenodd" d="M35.2012 11.0162C35.2012 6.77976 31.68 3.33344 27.352 3.33344C23.2213 3.33344 19.7324 6.85177 19.7324 11.0162C19.7324 15.2526 23.1509 18.6989 27.352 18.6989C31.7532 18.6989 35.2012 15.3246 35.2012 11.0162ZM16.3763 11.0164C16.3763 4.9418 21.2997 0 27.352 0C33.5306 0 38.5573 4.9418 38.5573 11.0164C38.5573 17.1943 33.6353 22.0328 27.352 22.0328C21.2997 22.0328 16.3763 17.091 16.3763 11.0164Z" fill="#FDA228"/>
</svg>
